<?xml version="1.0" encoding="utf-8"?>
<svg version="1.1"
	 id="Layer_1" xmlns:cc="http://creativecommons.org/ns#" xmlns:dc="http://purl.org/dc/elements/1.1/" xmlns:inkscape="http://www.inkscape.org/namespaces/inkscape" xmlns:rdf="http://www.w3.org/1999/02/22-rdf-syntax-ns#" xmlns:sodipodi="http://sodipodi.sourceforge.net/DTD/sodipodi-0.dtd" xmlns:svg="http://www.w3.org/2000/svg"
	 xmlns="http://www.w3.org/2000/svg" xmlns:xlink="http://www.w3.org/1999/xlink" x="0px" y="0px" viewBox="0 0 512 512"
	 style="enable-background:new 0 0 512 512;" xml:space="preserve">
<style type="text/css">
	.st0{fill:#3b87c8;}
</style>
<path id="path1901" class="st0" d="M200.2,396c0,0-19.6,11.4,13.9,15.2c40.6,4.6,61.3,4,106-4.5c0,0,11.8,7.4,28.2,13.8
	C248.1,463.4,121.5,418,200.2,396"/>
<path id="path1903" class="st0" d="M188,339.9c0,0-21.9,16.2,11.6,19.7c43.3,4.5,77.6,4.8,136.8-6.6c0,0,8.2,8.3,21.1,12.8
	C236.2,401.3,101.2,368.7,188,339.9"/>
<path id="path1905" class="st0" d="M291.2,244.8c24.7,28.4-6.5,54-6.5,54s62.7-32.4,33.9-72.9c-26.9-37.8-47.5-56.6,64.1-121.3
	C382.8,104.6,207.5,148.4,291.2,244.8"/>
<path id="path1907" class="st0" d="M423.8,437.4c0,0,14.5,11.9-15.9,21.2c-57.9,17.5-240.8,22.8-291.6,0.7
	c-18.3-7.9,16-19,26.8-21.3c11.2-2.4,17.7-2,17.7-2c-20.3-14.3-131.3,28.1-56.4,40.3C308.6,509.4,476.8,461.3,423.8,437.4"/>
<path id="path1909" class="st0" d="M209.6,281.8c0,0-93.1,22.1-33,30.1c25.4,3.4,76,2.6,123.1-1.3c38.5-3.2,77.2-10.2,77.2-10.2
	s-13.6,5.8-23.4,12.5c-94.5,24.9-277,13.3-224.5-12.1C173.5,279.4,209.6,281.8,209.6,281.8"/>
<path id="path1911" class="st0" d="M376.6,375.1c96.1-49.9,51.6-97.9,20.6-91.4c-7.6,1.6-11,3-11,3s2.8-4.4,8.2-6.3
	c61.3-21.6,108.5,63.6-19.8,97.3C374.6,377.6,376.1,376.3,376.6,375.1"/>
<path id="path1913" class="st0" d="M318.6,0c0,0,53.2,53.2-50.5,135c-83.1,65.6-19,103.1,0,145.8c-48.5-43.8-84.1-82.3-60.2-118.2
	C243,110.1,340.1,84.5,318.6,0"/>
<path id="path1915" class="st0" d="M219.1,510.4c92.2,5.9,233.8-3.3,237.1-46.9c0,0-6.4,16.5-76.2,29.7
	c-78.7,14.8-175.8,13.1-233.3,3.6C146.7,496.7,158.5,506.5,219.1,510.4"/>
</svg>
