<?xml version="1.0" encoding="utf-8"?>
<!-- Generator: Adobe Illustrator 20.0.0, SVG Export Plug-In . SVG Version: 6.00 Build 0)  -->
<svg version="1.1" id="Calque_1" xmlns="http://www.w3.org/2000/svg" xmlns:xlink="http://www.w3.org/1999/xlink" x="0px" y="0px"
	 viewBox="0 0 262.3 226" style="enable-background:new 0 0 262.3 226;" xml:space="preserve">
<style type="text/css">
	.st0{fill:#FFFFFF;stroke:#000000;stroke-miterlimit:10;}
	.st1{fill:none;stroke:#000000;stroke-miterlimit:10;}
	.st2{fill:none;}
	.st3{font-family:'MyriadPro-Regular';}
	.st4{font-size:12px;}
</style>
<circle class="st0" cx="125.2" cy="112.3" r="83.8"/>
<line class="st1" x1="125.2" y1="21" x2="125.2" y2="202.5"/>
<line class="st1" x1="24.4" y1="112.3" x2="219" y2="112.3"/>
<rect x="115.5" y="8.5" class="st2" width="19.3" height="9.7"/>
<text transform="matrix(1 0 0 1 115.5307 17.0199)" class="st3 st4">sin</text>
<rect x="219" y="96.4" class="st2" width="19.3" height="9.7"/>
<text transform="matrix(1 0 0 1 218.9976 104.8802)" class="st3 st4">cos</text>
<rect x="117" y="206.4" class="st2" width="19.3" height="9.7"/>
<text transform="matrix(1 0 0 1 117.0002 214.9072)" class="st3 st4">-sin</text>
<rect x="6.7" y="96.4" class="st2" width="27.7" height="9.7"/>
<text transform="matrix(1 0 0 1 6.6663 104.8802)"><tspan x="0" y="0" class="st3 st4">-</tspan><tspan x="3.9" y="0" class="st3 st4">cos</tspan></text>
<path class="st1" d="M241.5,66.3c1.6-30.2-24.2-56-57.7-57.8"/>
<polygon class="st1" points="247.5,65.4 235.3,66.8 242.7,78.2 "/>
</svg>
