<?xml version="1.0" encoding="utf-8"?>
<!-- Generator: Adobe Illustrator 20.0.0, SVG Export Plug-In . SVG Version: 6.00 Build 0)  -->
<svg version="1.1" id="Calque_1" xmlns="http://www.w3.org/2000/svg" xmlns:xlink="http://www.w3.org/1999/xlink" x="0px" y="0px"
	 viewBox="0 0 563.7 260.7" style="enable-background:new 0 0 563.7 260.7;" xml:space="preserve">
<style type="text/css">
	.st0{fill:#FFFFFF;stroke:#000000;stroke-miterlimit:10;}
	.st1{font-family:'MyriadPro-Regular';}
	.st2{font-size:7.2092px;}
	.st3{fill:none;stroke:#000000;stroke-miterlimit:10;}
	.st4{fill:none;}
	.st5{font-size:7.2025px;}
	.st6{font-size:7px;}
	.st7{font-size:7.7294px;}
</style>
<rect x="7" y="222" class="st0" width="71" height="24.5"/>
<rect x="187.1" y="222" class="st0" width="70.2" height="24.5"/>
<text transform="matrix(1 0 0 1 212.4248 236.6411)" class="st1 st2">Aliment</text>
<text transform="matrix(1 0 0 1 34.0771 237.4194)" class="st1 st2">Enfant</text>
<line class="st3" x1="38.8" y1="75.4" x2="38.8" y2="222"/>
<rect x="96.4" y="222" class="st0" width="72" height="24.5"/>
<polygon class="st3" points="109.7,147 109.7,204 165.9,175.5 "/>
<rect x="213.3" y="162.9" class="st4" width="16" height="22.9"/>
<text transform="matrix(1.0006 0 0 1 213.2688 168.0347)"><tspan x="0" y="0" class="st1 st5">nom</tspan><tspan x="0" y="8.6" class="st1 st5">   =</tspan><tspan x="0" y="17.3" class="st1 st5">  ‘lait’</tspan></text>
<text transform="matrix(1 0 0 1 121.5 236.6411)" class="st1 st2">Allergie</text>
<line class="st3" x1="132.8" y1="192.3" x2="132.8" y2="222"/>
<polygon class="st3" points="201.2,147.6 201.2,204.5 257.3,176.1 "/>
<rect x="113" y="164.6" class="st4" width="37.1" height="28.8"/>
<text transform="matrix(1.0006 0 0 1 113.0269 169.7285)"><tspan x="0" y="0" class="st1 st5">traitement</tspan><tspan x="0" y="8.6" class="st1 st5">        =</tspan><tspan x="0" y="17.3" class="st1 st5">  ‘hospita.’</tspan></text>
<polygon class="st3" points="163.8,92.7 195.5,108.3 195.5,92.7 163.8,108.3 "/>
<line class="st3" x1="132.3" y1="158.5" x2="132.3" y2="116.5"/>
<line class="st3" x1="229.3" y1="161.8" x2="229.3" y2="116.5"/>
<line class="st3" x1="132.3" y1="116.5" x2="163.8" y2="100.5"/>
<line class="st3" x1="195.5" y1="100.5" x2="229.3" y2="116.5"/>
<polygon class="st3" points="90.1,50.2 121.8,65.8 121.8,50.2 90.1,65.8 "/>
<line class="st3" x1="121.8" y1="58" x2="179.7" y2="69.2"/>
<line class="st3" x1="179.7" y1="69.2" x2="179.7" y2="100.5"/>
<line class="st3" x1="38.8" y1="75.4" x2="90.1" y2="58"/>
<rect x="141" y="114.8" class="st4" width="81.2" height="12.8"/>
<text transform="matrix(1 0 0 1 141.006 119.7742)" class="st1 st6">All.n_aliment = A.n_aliment</text>
<rect x="64.5" y="72" class="st4" width="98.8" height="12.8"/>
<text transform="matrix(1 0 0 1 64.472 76.9663)" class="st1 st6">Enfant.n_enfant = All.n_enfant</text>
<rect x="302" y="222" class="st0" width="71" height="24.5"/>
<rect x="482.1" y="222" class="st0" width="70.2" height="24.5"/>
<text transform="matrix(1 0 0 1 507.4248 236.6411)" class="st1 st2">Aliment</text>
<text transform="matrix(1 0 0 1 329.0771 237.4194)" class="st1 st2">Enfant</text>
<line class="st3" x1="333.8" y1="116.5" x2="333.8" y2="222"/>
<rect x="391.4" y="222" class="st0" width="72" height="24.5"/>
<polygon class="st3" points="404.7,147 404.7,204 460.9,175.5 "/>
<rect x="503.9" y="163.5" class="st4" width="22" height="23.5"/>
<text transform="matrix(1.0006 0 0 1 503.8643 168.5897)"><tspan x="0" y="0" class="st1 st5">nom</tspan><tspan x="0" y="8.6" class="st1 st5">   =</tspan><tspan x="0" y="17.3" class="st1 st5">  ‘lait’</tspan></text>
<text transform="matrix(1 0 0 1 416.5 236.6411)" class="st1 st2">Allergie</text>
<line class="st3" x1="427.8" y1="192.3" x2="427.8" y2="222"/>
<polygon class="st3" points="496.2,147.6 496.2,204.5 552.3,176.1 "/>
<rect x="407.6" y="164.6" class="st4" width="37.1" height="28.8"/>
<text transform="matrix(1.0006 0 0 1 407.6391 169.7285)"><tspan x="0" y="0" class="st1 st5">traitement</tspan><tspan x="0" y="8.6" class="st1 st5">        =</tspan><tspan x="0" y="17.3" class="st1 st5">  ‘hospita.’</tspan></text>
<polygon class="st3" points="366.8,92.7 398.5,108.3 398.5,92.7 366.8,108.3 "/>
<line class="st3" x1="427.3" y1="158.5" x2="427.3" y2="116.5"/>
<line class="st3" x1="524.3" y1="161.8" x2="524.3" y2="70"/>
<line class="st3" x1="334.3" y1="116.5" x2="365.8" y2="100.5"/>
<polygon class="st3" points="433.5,50.2 465.2,65.8 465.2,50.2 433.5,65.8 "/>
<rect x="408.8" y="75.4" class="st4" width="81.2" height="12.8"/>
<text transform="matrix(1 0 0 1 408.7639 80.3318)" class="st1 st6">All.n_aliment = A.n_aliment</text>
<rect x="335.5" y="121.2" class="st4" width="98.8" height="12.8"/>
<text transform="matrix(1 0 0 1 335.5261 126.1934)" class="st1 st6">Enfant.n_enfant = All.n_enfant</text>
<line class="st3" x1="398.5" y1="100.5" x2="427.3" y2="116.5"/>
<line class="st3" x1="382.7" y1="70" x2="382.7" y2="101.3"/>
<line class="st3" x1="382.7" y1="70" x2="433.5" y2="58"/>
<line class="st3" x1="465.2" y1="58" x2="524.3" y2="70"/>
<polygon class="st3" points="76.6,17.5 64.1,33.8 147.8,33.8 139.2,17.5 "/>
<text transform="matrix(1 0 0 1 87.6363 27.8156)" class="st1 st7">Enfant.nom</text>
<polygon class="st3" points="420,16.7 407.5,33 491.2,33 482.7,16.7 "/>
<text transform="matrix(1 0 0 1 431.0488 26.9582)" class="st1 st7">Enfant.nom</text>
<line class="st3" x1="106" y1="33.8" x2="106" y2="58"/>
<line class="st3" x1="449.4" y1="33" x2="449.4" y2="58"/>
<line class="st3" x1="524.3" y1="190.3" x2="524.3" y2="222"/>
<line class="st3" x1="229.3" y1="190.3" x2="229.3" y2="222"/>
</svg>
