<?xml version="1.0" encoding="utf-8"?>
<!-- Generator: Adobe Illustrator 20.0.0, SVG Export Plug-In . SVG Version: 6.00 Build 0)  -->
<svg version="1.1" id="Calque_1" xmlns="http://www.w3.org/2000/svg" xmlns:xlink="http://www.w3.org/1999/xlink" x="0px" y="0px"
	 viewBox="0 0 563.7 260.7" style="enable-background:new 0 0 563.7 260.7;" xml:space="preserve">
<style type="text/css">
	.st0{fill:#FFFFFF;stroke:#000000;stroke-miterlimit:10;}
	.st1{font-family:'ArialMT';}
	.st2{font-size:7.2092px;}
	.st3{fill:none;stroke:#000000;stroke-miterlimit:10;}
	.st4{fill:none;}
	.st5{font-size:7.2025px;}
	.st6{font-size:7px;}
	.st7{font-size:12px;}
	.st8{font-size:7.7294px;}
</style>
<rect x="7" y="222" class="st0" width="71" height="24.5"/>
<rect x="187.1" y="222" class="st0" width="70.2" height="24.5"/>
<text transform="matrix(1 0 0 1 212.4248 236.6411)" class="st1 st2">Aliment</text>
<text transform="matrix(1 0 0 1 34.0771 237.4194)" class="st1 st2">Enfant</text>
<rect x="96.4" y="222" class="st0" width="72" height="24.5"/>
<polygon class="st3" points="206.7,147.4 206.7,204.4 262.9,175.9 "/>
<rect x="216" y="163.9" class="st4" width="22" height="28.8"/>
<text transform="matrix(1.0006 0 0 1 215.98 168.9906)" class="st1 st5">nom</text>
<text transform="matrix(1.0006 0 0 1 215.98 177.5902)" class="st1 st5">   =</text>
<text transform="matrix(1.0006 0 0 1 215.98 186.2904)" class="st1 st5">  ‘lait’</text>
<text transform="matrix(1 0 0 1 121.5 236.6411)" class="st1 st2">Allergi</text>
<text transform="matrix(1 0 0 1 141 236.6411)" class="st1 st2">e</text>
<line class="st3" x1="229.8" y1="192.7" x2="229.8" y2="222.4"/>
<polygon class="st3" points="22.3,140.7 22.3,197.7 78.5,169.2 "/>
<rect x="31.9" y="158.1" class="st4" width="21.3" height="28.8"/>
<text transform="matrix(1.0006 0 0 1 31.8745 163.2059)" class="st1 st5">classe</text>
<text transform="matrix(1.0006 0 0 1 31.8745 171.806)" class="st1 st5">    =</text>
<text transform="matrix(1.0006 0 0 1 31.8745 180.5057)" class="st1 st5">  ‘CP’</text>
<polygon class="st3" points="163.8,92.7 195.5,108.3 195.5,92.7 163.8,108.3 "/>
<line class="st3" x1="229.3" y1="158.9" x2="229.3" y2="116.9"/>
<line class="st3" x1="132.3" y1="222" x2="132.3" y2="116.5"/>
<line class="st3" x1="132.3" y1="116.5" x2="163.8" y2="100.5"/>
<line class="st3" x1="195.5" y1="100.5" x2="229.3" y2="116.5"/>
<polygon class="st3" points="90.1,50.2 121.8,65.8 121.8,50.2 90.1,65.8 "/>
<line class="st3" x1="121.8" y1="58" x2="179.7" y2="69.2"/>
<line class="st3" x1="179.7" y1="69.2" x2="179.7" y2="100.5"/>
<line class="st3" x1="38.8" y1="75.4" x2="90.1" y2="58"/>
<rect x="141" y="114.8" class="st4" width="81.2" height="12.8"/>
<text transform="matrix(1 0 0 1 141.006 119.7742)" class="st1 st6">All.n_aliment = A.n_aliment</text>
<rect x="64.5" y="72" class="st4" width="98.8" height="12.8"/>
<text transform="matrix(1 0 0 1 64.472 76.9663)" class="st1 st6">Enfant.n_enfant = All.n_enfant</text>
<rect x="302" y="222" class="st0" width="71" height="24.5"/>
<rect x="482.1" y="222" class="st0" width="70.2" height="24.5"/>
<text transform="matrix(1 0 0 1 507.4248 236.6411)" class="st1 st2">Aliment</text>
<text transform="matrix(1 0 0 1 329.0771 237.4194)" class="st1 st2">Enfant</text>
<rect x="391.4" y="222" class="st0" width="72" height="24.5"/>
<polygon class="st3" points="493.7,147 493.7,204 549.9,175.5 "/>
<rect x="503" y="163.5" class="st4" width="18.8" height="23.4"/>
<text transform="matrix(1.0006 0 0 1 502.9863 168.5897)" class="st1 st5">nom</text>
<text transform="matrix(1.0006 0 0 1 502.9863 177.1898)" class="st1 st5">   =</text>
<text transform="matrix(1.0006 0 0 1 502.9863 185.8895)" class="st1 st5">  ‘lait’</text>
<text transform="matrix(1 0 0 1 416.5 236.6411)" class="st1 st2">Allergie</text>
<path id="SVGID_x5F_1_x5F_" class="st4" d="M427.8,192.3V222"/>
<text transform="matrix(1 0 0 1 427.8 192.3)" class="st1 st7"> </text>
<text transform="matrix(1 0 0 1 0 -1.464844e-05)" class="st1 st7"> </text>
<polygon class="st3" points="366.8,92.7 398.5,108.3 398.5,92.7 366.8,108.3 "/>
<line class="st3" x1="427.8" y1="222" x2="427.3" y2="116.5"/>
<line class="st3" x1="524.3" y1="161.8" x2="524.3" y2="70"/>
<line class="st3" x1="334.3" y1="116.5" x2="365.8" y2="100.5"/>
<polygon class="st3" points="433.5,50.2 465.2,65.8 465.2,50.2 433.5,65.8 "/>
<rect x="408.8" y="75.4" class="st4" width="81.2" height="12.8"/>
<text transform="matrix(1 0 0 1 408.7639 80.3318)" class="st1 st6">All.n_aliment = A.n_aliment</text>
<rect x="335.5" y="121.2" class="st4" width="98.8" height="12.8"/>
<text transform="matrix(1 0 0 1 335.5261 126.1934)" class="st1 st6">Enfant.n_enfant = All.n_enfant</text>
<line class="st3" x1="398.5" y1="100.5" x2="427.3" y2="116.5"/>
<line class="st3" x1="382.7" y1="70" x2="382.7" y2="101.3"/>
<line class="st3" x1="382.7" y1="70" x2="433.5" y2="58"/>
<line class="st3" x1="465.2" y1="58" x2="524.3" y2="70"/>
<polygon class="st3" points="76.6,17.5 64.1,33.8 147.8,33.8 139.2,17.5 "/>
<text transform="matrix(1 0 0 1 87.6363 27.8156)" class="st1 st8">Enfant.nom</text>
<polygon class="st3" points="420,16.7 407.5,33 491.2,33 482.7,16.7 "/>
<text transform="matrix(1 0 0 1 431.0488 26.9582)" class="st1 st8">Enfant.nom</text>
<line class="st3" x1="106" y1="33.8" x2="106" y2="58"/>
<line class="st3" x1="449.4" y1="33" x2="449.4" y2="58"/>
<line class="st3" x1="38.8" y1="75.4" x2="38.8" y2="149.4"/>
<line class="st3" x1="38.8" y1="189.4" x2="38.8" y2="222"/>
<polygon class="st3" points="317.6,141.9 317.6,198.9 373.7,170.4 "/>
<rect x="327.1" y="159.2" class="st4" width="21.3" height="28.8"/>
<text transform="matrix(1.0006 0 0 1 327.1406 164.348)" class="st1 st5">classe</text>
<text transform="matrix(1.0006 0 0 1 327.1406 172.9481)" class="st1 st5">    =</text>
<text transform="matrix(1.0006 0 0 1 327.1406 181.6483)" class="st1 st5">  ‘CP’</text>
<line class="st3" x1="334.9" y1="190.1" x2="334.9" y2="222"/>
<line class="st3" x1="522.8" y1="189.2" x2="522.8" y2="222"/>
<line class="st3" x1="334.3" y1="116.5" x2="334.3" y2="150.4"/>
</svg>
