<?xml version="1.0" encoding="UTF-8" standalone="no"?>
<!DOCTYPE svg PUBLIC "-//W3C//DTD SVG 1.1//EN"
 "http://www.w3.org/Graphics/SVG/1.1/DTD/svg11.dtd">
<!-- Generated by graphviz version 2.38.0 (20140413.2041)
 -->
<!-- Title: G Pages: 1 -->
<svg width="278pt" height="189pt"
 viewBox="0.00 0.00 278.00 188.91" xmlns="http://www.w3.org/2000/svg" xmlns:xlink="http://www.w3.org/1999/xlink">
<g id="graph0" class="graph" transform="scale(1 1) rotate(0) translate(139 94.9116)">
<title>G</title>
<polygon fill="white" stroke="none" points="-139,94 -139,-94.9116 139,-94.9116 139,94 -139,94"/>
<!-- 1 -->
<g id="node1" class="node"><title>1</title>
<ellipse fill="none" stroke="black" cx="-108" cy="-72" rx="27" ry="18"/>
<text text-anchor="middle" x="-108" y="-67.8" font-family="Times,serif" font-size="14.00">1</text>
</g>
<!-- 3 -->
<g id="node3" class="node"><title>3</title>
<ellipse fill="none" stroke="black" cx="108" cy="-72" rx="27" ry="18"/>
<text text-anchor="middle" x="108" y="-67.8" font-family="Times,serif" font-size="14.00">3</text>
</g>
<!-- 1&#45;&gt;3 -->
<g id="edge1" class="edge"><title>1&#45;&gt;3</title>
<path fill="none" stroke="black" d="M-81.5142,-76.6143C-43.1117,-79.2476 28.1648,-79.4458 71.5161,-77.2089"/>
<polygon fill="black" stroke="black" points="71.8616,-80.6946 81.6357,-76.6059 71.4452,-73.707 71.8616,-80.6946"/>
<text text-anchor="middle" x="-8.49905" y="-79.7116" font-family="Times,serif" font-size="14.00">x</text>
</g>
<!-- 4 -->
<g id="node4" class="node"><title>4</title>
<ellipse fill="none" stroke="black" cx="108" cy="72" rx="27" ry="18"/>
<text text-anchor="middle" x="108" y="76.2" font-family="Times,serif" font-size="14.00">4</text>
</g>
<!-- 1&#45;&gt;4 -->
<g id="edge4" class="edge"><title>1&#45;&gt;4</title>
<path fill="none" stroke="black" d="M-88.8314,-59.221C-50.4836,-33.6558 35.8059,23.8706 80.3023,53.5349"/>
<polygon fill="black" stroke="black" points="82.4953,50.7904 88.8744,59.2496 78.6124,56.6147 82.4953,50.7904"/>
<text text-anchor="middle" x="-7.76458" y="-5.64305" font-family="Times,serif" font-size="14.00">y</text>
</g>
<!-- 2 -->
<g id="node2" class="node"><title>2</title>
<ellipse fill="none" stroke="black" cx="-108" cy="72" rx="27" ry="18"/>
<text text-anchor="middle" x="-108" y="76.2" font-family="Times,serif" font-size="14.00">2</text>
</g>
<!-- 3&#45;&gt;1 -->
<g id="edge3" class="edge"><title>3&#45;&gt;1</title>
<path fill="none" stroke="black" d="M81.5142,-67.3857C43.1117,-64.7524 -28.1648,-64.5542 -71.5161,-66.7911"/>
<polygon fill="black" stroke="black" points="-71.8616,-63.3054 -81.6357,-67.3941 -71.4452,-70.293 -71.8616,-63.3054"/>
<text text-anchor="middle" x="1.49905" y="-69.8884" font-family="Times,serif" font-size="14.00">y</text>
</g>
<!-- 3&#45;&gt;2 -->
<g id="edge6" class="edge"><title>3&#45;&gt;2</title>
<path fill="none" stroke="black" d="M88.8314,-59.221C50.4836,-33.6558 -35.8059,23.8706 -80.3023,53.5349"/>
<polygon fill="black" stroke="black" points="-78.6124,56.6147 -88.8744,59.2496 -82.4953,50.7904 -78.6124,56.6147"/>
<text text-anchor="middle" x="2.31975" y="-5.64305" font-family="Times,serif" font-size="14.00">t</text>
</g>
<!-- 3&#45;&gt;4 -->
<g id="edge2" class="edge"><title>3&#45;&gt;4</title>
<path fill="none" stroke="black" d="M108,-53.7623C108,-29.201 108,14.7526 108,43.6459"/>
<polygon fill="black" stroke="black" points="111.5,43.9104 108,53.9104 104.5,43.9103 111.5,43.9104"/>
<text text-anchor="middle" x="104.5" y="-7.85818" font-family="Times,serif" font-size="14.00">x</text>
</g>
<!-- 4&#45;&gt;2 -->
<g id="edge5" class="edge"><title>4&#45;&gt;2</title>
<path fill="none" stroke="black" d="M80.6435,72C42.2597,72 -27.6983,72 -70.7878,72"/>
<polygon fill="black" stroke="black" points="-70.8655,75.4999 -80.8656,72 -70.8656,68.4999 -70.8655,75.4999"/>
<text text-anchor="middle" x="1.42782" y="69.2" font-family="Times,serif" font-size="14.00">y</text>
</g>
</g>
</svg>
