<?xml version="1.0" encoding="utf-8"?>
<!-- Generator: Adobe Illustrator 20.0.0, SVG Export Plug-In . SVG Version: 6.00 Build 0)  -->
<svg version="1.1" id="Calque_1" xmlns="http://www.w3.org/2000/svg" xmlns:xlink="http://www.w3.org/1999/xlink" x="0px" y="0px"
	 viewBox="0 0 824 473.7" style="enable-background:new 0 0 824 473.7;" xml:space="preserve">
<style type="text/css">
	.st0{fill:#282828;}
	.st1{fill:none;stroke:#D60000;stroke-width:3;stroke-miterlimit:10;}
	.st2{fill:none;}
	.st3{font-family:'ArialMT';}
	.st4{font-size:21px;}
</style>
<title>2</title>
<path class="st0" d="M83,74.2c-9.7,0-17.5-7.8-17.5-17.5S73.3,39.2,83,39.2s17.5,7.8,17.5,17.5l0,0C100.5,66.3,92.7,74.2,83,74.2z"
	/>
<path d="M83,39.7c9.4,0,17,7.6,17,17s-7.6,17-17,17s-17-7.6-17-17S73.6,39.7,83,39.7 M83,38.7c-9.9,0-18,8.1-18,18s8.1,18,18,18
	s18-8.1,18-18S92.9,38.7,83,38.7z"/>
<path class="st0" d="M377.3,246.2c-9.7,0-17.5-7.8-17.5-17.5s7.8-17.5,17.5-17.5s17.5,7.8,17.5,17.5l0,0
	C394.8,238.3,386.9,246.2,377.3,246.2z"/>
<path d="M377.3,211.7c9.4,0,17,7.6,17,17s-7.6,17-17,17s-17-7.6-17-17l0,0C360.3,219.3,367.9,211.7,377.3,211.7 M377.3,210.7
	c-9.9,0-18,8.1-18,18s8.1,18,18,18s18-8.1,18-18S387.2,210.7,377.3,210.7z"/>
<path class="st0" d="M377.3,439.2c-9.7,0-17.5-7.8-17.5-17.5s7.8-17.5,17.5-17.5s17.5,7.8,17.5,17.5l0,0
	C394.8,431.3,386.9,439.2,377.3,439.2z"/>
<path d="M377.3,404.7c9.4,0,17,7.6,17,17s-7.6,17-17,17s-17-7.6-17-17l0,0C360.3,412.3,367.9,404.7,377.3,404.7 M377.3,403.7
	c-9.9,0-18,8.1-18,18s8.1,18,18,18s18-8.1,18-18C395.3,411.7,387.2,403.7,377.3,403.7z"/>
<path class="st0" d="M83,372.2c-9.7,0-17.5-7.8-17.5-17.5s7.8-17.5,17.5-17.5s17.5,7.8,17.5,17.5C100.5,364.3,92.7,372.2,83,372.2z"
	/>
<path d="M83,337.7c9.4,0,17,7.6,17,17s-7.6,17-17,17s-17-7.6-17-17S73.6,337.7,83,337.7L83,337.7 M83,336.7c-9.9,0-18,8.1-18,18
	s8.1,18,18,18s18-8.1,18-18C101,344.7,92.9,336.7,83,336.7z"/>
<path class="st0" d="M686,74.2c-9.7,0-17.5-7.8-17.5-17.5s7.8-17.5,17.5-17.5s17.5,7.8,17.5,17.5l0,0
	C703.5,66.3,695.7,74.2,686,74.2z"/>
<path d="M686,39.7c9.4,0,17,7.6,17,17s-7.6,17-17,17s-17-7.6-17-17S676.6,39.7,686,39.7 M686,38.7c-9.9,0-18,8.1-18,18s8.1,18,18,18
	s18-8.1,18-18S695.9,38.7,686,38.7z"/>
<path class="st0" d="M686,372.2c-9.7,0-17.5-7.8-17.5-17.5s7.8-17.5,17.5-17.5s17.5,7.8,17.5,17.5
	C703.5,364.3,695.7,372.2,686,372.2z"/>
<path d="M686,337.7c9.4,0,17,7.6,17,17s-7.6,17-17,17s-17-7.6-17-17S676.6,337.7,686,337.7L686,337.7 M686,336.7
	c-9.9,0-18,8.1-18,18s8.1,18,18,18s18-8.1,18-18C704,344.7,695.9,336.7,686,336.7z"/>
<line class="st1" x1="98.5" y1="65.8" x2="359.3" y2="218.1"/>
<line class="st2" x1="98.5" y1="65.8" x2="359.3" y2="218.1"/>
<line class="st1" x1="377.3" y1="403.7" x2="377.3" y2="246.7"/>
<line class="st1" x1="83" y1="336.7" x2="83" y2="74.7"/>
<line class="st1" x1="101" y1="56.7" x2="668" y2="56.7"/>
<line class="st2" x1="101" y1="56.7" x2="668" y2="56.7"/>
<line class="st1" x1="686" y1="336.7" x2="686" y2="74.7"/>
<text transform="matrix(1 0 0 1 0 17.58)" class="st0 st3 st4">M</text>
<text transform="matrix(1 0 0 1 17.01 17.58)" class="st0 st3 st4">a</text>
<text transform="matrix(1 0 0 1 27.13 17.58)" class="st0 st3 st4">r</text>
<text transform="matrix(1 0 0 1 34.08 17.58)" class="st0 st3 st4">ly</text>
<text transform="matrix(1 0 0 1 709 17.58)" class="st0 st3 st4">F</text>
<text transform="matrix(1 0 0 1 718.28 17.58)" class="st0 st3 st4">amars</text>
<text transform="matrix(1 0 0 1 717 370.58)" class="st0 st3 st4">M</text>
<text transform="matrix(1 0 0 1 734.01 370.58)" class="st0 st3 st4">aing</text>
<text transform="matrix(1 0 0 1 395.28 454.58)" class="st0 st3 st4">V</text>
<text transform="matrix(1 0 0 1 406.3 454.58)" class="st0 st3 st4">alenciennes</text>
<text transform="matrix(1 0 0 1 0 395.58)" class="st0 st3 st4">D</text>
<text transform="matrix(1 0 0 1 14.07 395.58)" class="st0 st3 st4">enain</text>
<text transform="matrix(1 0 0 1 331 186.58)" class="st0 st3 st4">A</text>
<text transform="matrix(1 0 0 1 343.6 186.58)" class="st0 st3 st4">uln</text>
<text transform="matrix(1 0 0 1 371.78 186.58)" class="st0 st3 st4">o</text>
<text transform="matrix(1 0 0 1 383.16 186.58)" class="st0 st3 st4">y</text>
<text transform="matrix(1 0 0 1 392.84 186.58)" class="st0 st3 st4">e</text>
<text transform="matrix(1 0 0 1 374 32.58)" class="st0 st3 st4">1</text>
<text transform="matrix(1 0 0 1 37 189.58)" class="st0 st3 st4">2</text>
<text transform="matrix(1 0 0 1 253 139.58)" class="st0 st3 st4">2</text>
<text transform="matrix(1 0 0 1 384.5 322.08)" class="st0 st3 st4">2</text>
<text transform="matrix(1 0 0 1 708.5 225.58)" class="st0 st3 st4">2</text>
<rect x="544" y="267" class="st2" width="65" height="45"/>
</svg>
